<?xml version="1.0" standalone="no"?>
<!DOCTYPE svg PUBLIC "-//W3C//DTD SVG 20010904//EN"
 "http://www.w3.org/TR/2001/REC-SVG-20010904/DTD/svg10.dtd">
<svg version="1.0" xmlns="http://www.w3.org/2000/svg"
 width="180.000000pt" height="180.000000pt" viewBox="0 0 180.000000 180.000000"
 preserveAspectRatio="xMidYMid meet">
<metadata>
Created by potrace 1.14, written by Peter Selinger 2001-2017
</metadata>
<g transform="translate(0.000000,180.000000) scale(0.100000,-0.100000)"
fill="#000000" stroke="none">
<path d="M0 900 l0 -750 900 0 900 0 0 750 0 750 -900 0 -900 0 0 -750z m428
328 c203 -356 275 -479 283 -483 5 -3 17 8 28 25 l19 31 41 -75 c22 -41 41
-77 41 -80 0 -16 -124 -216 -130 -209 -10 11 -480 832 -480 839 0 2 39 3 86 2
l86 -3 26 -47z m378 -56 c34 -59 108 -187 164 -285 l103 -178 40 68 c22 37 40
73 40 78 0 6 -52 101 -116 213 -64 111 -117 204 -117 207 0 3 146 5 325 5 179
0 325 -2 325 -5 0 -9 -132 -238 -145 -253 -9 -10 -19 0 -44 48 -18 34 -38 64
-45 66 -7 3 -47 4 -88 2 l-75 -3 78 -135 c43 -74 78 -140 76 -145 -4 -18 -249
-425 -256 -425 -6 0 -127 202 -334 560 -65 113 -130 224 -143 248 l-25 42 88
0 88 0 61 -108z"/>
</g>
</svg>
